<svg xmlns="http://www.w3.org/2000/svg" style="display:none"><symbol id="icon-angle-left" viewBox="0 0 11 28"><path d="M9.797 8.5q0 .203-.156.36L3.5 15l6.14 6.14q.157.157.157.36t-.156.36l-.78.78q-.156.156-.36.156t-.358-.156l-7.28-7.28Q.704 15.202.704 15t.156-.36l7.282-7.28q.156-.156.36-.156t.358.156l.78.78q.157.157.157.36z"/></symbol><symbol id="icon-angle-right" viewBox="0 0 10 28"><path d="M9.297 15q0 .203-.156.36l-7.28 7.28q-.156.156-.36.156t-.358-.156l-.78-.78q-.157-.157-.157-.36t.156-.36L6.503 15 .362 8.86Q.204 8.702.204 8.5t.156-.36l.782-.78q.156-.156.36-.156t.358.156l7.28 7.28q.157.157.157.36z"/></symbol><symbol id="icon-facebook" viewBox="0 0 16 28"><path d="M14.984.187v4.125H12.53q-1.343 0-1.812.562t-.47 1.687v2.96h4.58l-.61 4.63h-3.97V26H5.47V14.14H1.484V9.514h3.984V6.108q0-2.906 1.625-4.508T11.42-.002q2.298 0 3.564.187z"/></symbol><symbol id="icon-search" viewBox="0 0 26 28"><path d="M18 13q0-2.89-2.055-4.945T11 6 6.055 8.055 4 13t2.055 4.945T11 20t4.945-2.055T18 13zm8 13q0 .812-.594 1.406T24 28q-.844 0-1.406-.594l-5.36-5.344Q14.44 24 11.002 24q-2.233 0-4.272-.868t-3.516-2.344-2.344-3.516T0 13 .87 8.725 3.212 5.21t3.516-2.344T11 2t4.274.866T18.79 5.21t2.344 3.516T22 13q0 3.436-1.936 6.233l5.36 5.36q.577.577.577 1.405z"/></symbol><symbol id="icon-twitter" viewBox="0 0 26 28"><path d="M25.312 6.375q-1.047 1.53-2.53 2.61.015.218.015.655 0 2.03-.594 4.055t-1.805 3.883-2.883 3.29-4.03 2.28-5.05.852q-4.233 0-7.75-2.266.548.063 1.22.063 3.516 0 6.266-2.156-1.64-.03-2.93-1t-1.78-2.49q.52.08.95.08.67 0 1.33-.17-1.75-.36-2.9-1.74T1.69 11.1v-.064q1.06.595 2.28.642-1.03-.688-1.64-1.797t-.61-2.4q0-1.37.69-2.54 1.89 2.32 4.6 3.72t5.805 1.56q-.125-.593-.125-1.155 0-2.095 1.475-3.57T17.735 4q2.19 0 3.688 1.595 1.703-.328 3.203-1.22-.578 1.798-2.22 2.782 1.454-.156 2.907-.78z"/></symbol></svg>