<?xml version="1.0" encoding="UTF-8" standalone="no"?>
<svg width="789px" height="272px" viewBox="0 0 789 272" version="1.1" xmlns="http://www.w3.org/2000/svg" xmlns:xlink="http://www.w3.org/1999/xlink" xmlns:sketch="http://www.bohemiancoding.com/sketch/ns">
    <!-- Generator: Sketch 3.5.1 (25234) - http://www.bohemiancoding.com/sketch -->
    <title>Imported Layers</title>
    <desc>Created with Sketch.</desc>
    <defs></defs>
    <g id="Page-1" stroke="none" stroke-width="1" fill="none" fill-rule="evenodd" sketch:type="MSPage">
        <g id="logo" sketch:type="MSArtboardGroup" transform="translate(-74.000000, -15.000000)" fill="#767575">
            <g id="Imported-Layers" sketch:type="MSLayerGroup" transform="translate(73.000000, 15.000000)">
                <path d="M52.6659143,249.538429 C52.6659143,256.325657 50.4742286,261.749571 46.0998857,265.796629 C41.7187714,269.852714 35.9292,271.8706 28.7266571,271.8706 C23.6932286,271.8706 19.2963143,270.6066 15.5404286,268.076343 C11.7845429,265.541571 9.04211429,261.982057 7.31991429,257.3978 L11.6626571,255.172257 C13.0417714,258.932657 15.2718286,261.860171 18.3573429,263.961571 C21.4428571,266.065229 25.0362286,267.119314 29.1374571,267.119314 C34.8593143,267.119314 39.3690857,265.557371 42.6622571,262.435743 C45.9509143,259.320886 47.5986286,255.016514 47.5986286,249.538429 C47.5986286,245.4372 46.2714286,241.884457 43.6192857,238.886971 C40.9603714,235.889486 36.5995714,232.957457 30.5346286,230.0954 C22.9867429,226.583286 17.7795143,223.290114 14.9197143,220.2204 C12.0576571,217.152943 10.6311429,213.053971 10.6311429,207.9122 C10.6311429,202.574057 12.482,198.240343 16.1882286,194.911057 C19.8922,191.584029 24.7450571,189.922771 30.7422857,189.922771 C34.3966,189.922771 37.6017429,190.654086 40.3599714,192.121229 C43.1159429,193.586114 45.4092,195.780057 47.2329714,198.712086 L43.2536286,201.608 C41.8767714,199.3644 40.0642857,197.648971 37.8252,196.463971 C35.5861143,195.274457 33.0513429,194.678571 30.2254,194.678571 C25.7066,194.678571 22.1583714,195.868086 19.5739429,198.244857 C16.9872571,200.626143 15.6961714,203.901257 15.6961714,208.072457 C15.6961714,211.376914 16.5426,214.110314 18.2309429,216.268143 C19.9192857,218.4192 22.9167714,220.653771 27.2279143,222.962829 C28.3655143,223.581286 30.0854571,224.457057 32.3990286,225.599171 C45.9102857,232.253229 52.6659143,240.232229 52.6659143,249.538429" id="Fill-1" sketch:type="MSShapeGroup"></path>
                <path d="M163.144029,195.764257 L143.965086,195.764257 L143.965086,270.839086 L138.900057,270.839086 L138.900057,195.764257 L119.714343,195.764257 L119.714343,191.0062 L163.144029,191.0062 L163.144029,195.764257" id="Fill-2" sketch:type="MSShapeGroup"></path>
                <path d="M290.223429,241.214086 C290.223429,252.102543 288.137829,259.937086 283.968886,264.710943 C279.797686,269.487057 273.057857,271.8706 263.751657,271.8706 C254.409343,271.8706 247.665,269.487057 243.511857,264.710943 C239.3542,259.937086 237.282143,252.102543 237.282143,241.214086 L237.282143,191.0062 L242.347171,191.0062 L242.347171,242.559343 C242.347171,251.1726 244.053571,257.424886 247.466371,261.3004 C250.876914,265.178171 256.309857,267.119314 263.751657,267.119314 C271.161857,267.119314 276.583514,265.178171 280.014371,261.3004 C283.442971,257.424886 285.1584,251.1726 285.1584,242.559343 L285.1584,191.0062 L290.223429,191.0062 L290.223429,241.214086" id="Fill-3" sketch:type="MSShapeGroup"></path>
                <path d="M426.507457,231.025343 C426.507457,244.437286 422.778657,254.422886 415.314286,260.991171 C407.849914,267.554943 396.397171,270.839086 380.9538,270.839086 L371.234543,270.839086 L371.234543,191.0062 L382.452543,191.0062 C396.794429,191.0062 407.719,194.470914 415.235286,201.400343 C422.751571,208.332029 426.507457,218.202514 426.507457,231.025343 L426.507457,231.025343 Z M421.442429,230.926029 C421.442429,219.373971 418.079286,210.627543 411.359771,204.686743 C404.635743,198.739171 394.726886,195.764257 381.628686,195.764257 L376.304086,195.764257 L376.304086,266.083286 L380.129943,266.083286 C394.814914,266.083286 405.369314,263.2754 411.7954,257.652857 C418.223743,252.037086 421.442429,243.128143 421.442429,230.926029 L421.442429,230.926029 Z" id="Fill-4" sketch:type="MSShapeGroup"></path>
                <path d="M503.383486,191.0062 L508.448514,191.0062 L508.448514,270.839086 L503.383486,270.839086 L503.383486,191.0062 Z" id="Fill-5" sketch:type="MSShapeGroup"></path>
                <path d="M666.967657,230.926029 C666.967657,242.333629 662.9522,252.01 654.919029,259.955143 C646.888114,267.902543 637.130486,271.8706 625.655171,271.8706 C614.276914,271.8706 604.591514,267.902543 596.596714,259.955143 C588.5974,252.01 584.6,242.333629 584.6,230.926029 C584.6,219.274657 588.531943,209.526057 596.389057,201.682486 C604.248429,193.845686 614.0038,189.922771 625.655171,189.922771 C637.338143,189.922771 647.147686,193.845686 655.074771,201.682486 C663.004114,209.526057 666.967657,219.274657 666.967657,230.926029 L666.967657,230.926029 Z M661.902629,230.926029 C661.902629,220.755343 658.392771,212.171429 651.379829,205.174286 C644.362371,198.1794 635.787486,194.678571 625.655171,194.678571 C615.590571,194.678571 607.074371,198.1794 600.113343,205.174286 C593.1478,212.171429 589.669543,220.755343 589.669543,230.926029 C589.669543,241.089943 593.138771,249.664829 600.086257,256.643914 C607.029229,263.627514 615.5522,267.119314 625.655171,267.119314 C635.787486,267.119314 644.362371,263.618486 651.379829,256.616829 C658.392771,249.621943 661.902629,241.056086 661.902629,230.926029 L661.902629,230.926029 Z" id="Fill-6" sketch:type="MSShapeGroup"></path>
                <path d="M782.720714,249.538429 C782.720714,256.325657 780.5358,261.749571 776.152429,265.796629 C771.780343,269.852714 765.986257,271.8706 758.783714,271.8706 C753.750286,271.8706 749.357886,270.6066 745.597486,268.076343 C741.8416,265.541571 739.099171,261.982057 737.374714,257.3978 L741.717457,255.172257 C743.098829,258.932657 745.3334,261.860171 748.418914,263.961571 C751.499914,266.065229 755.093286,267.119314 759.199029,267.119314 C764.920886,267.119314 769.426143,265.557371 772.719314,262.435743 C776.007971,259.320886 777.655686,255.016514 777.655686,249.538429 C777.655686,245.4372 776.328486,241.884457 773.676343,238.886971 C771.017429,235.889486 766.656629,232.957457 760.591686,230.0954 C753.0438,226.583286 747.836571,223.290114 744.976771,220.2204 C742.114714,217.152943 740.685943,213.053971 740.685943,207.9122 C740.685943,202.574057 742.539057,198.240343 746.245286,194.911057 C749.949257,191.584029 754.802114,189.922771 760.797086,189.922771 C764.453657,189.922771 767.6588,190.654086 770.417029,192.121229 C773.173,193.586114 775.466257,195.780057 777.294543,198.712086 L773.312943,201.608 C771.933829,199.3644 770.125857,197.648971 767.882257,196.463971 C765.643171,195.274457 763.1084,194.678571 760.282457,194.678571 C755.768171,194.678571 752.215429,195.868086 749.631,198.244857 C747.048829,200.626143 745.750971,203.901257 745.750971,208.072457 C745.750971,211.376914 746.5974,214.110314 748.285743,216.268143 C749.976343,218.4192 752.978343,220.653771 757.284971,222.962829 C758.422571,223.581286 760.144771,224.457057 762.456086,225.599171 C775.967343,232.253229 782.720714,240.232229 782.720714,249.538429" id="Fill-7" sketch:type="MSShapeGroup"></path>
                <path d="M764.792229,39.7505429 L763.769743,42.4184857 L733.201257,121.8496 L701.420686,39.7505429 L676.8246,39.7505429 L722.558829,155.817343 L743.6586,155.817343 L789.3996,39.7505429 L764.792229,39.7505429" id="Fill-8" sketch:type="MSShapeGroup"></path>
                <path d="M143.143486,41.9151429 L116.732657,121.520057 L93.694,51.5215429 L75.4382286,51.5215429 L52.5846571,121.511029 L25.9887429,41.9151429 L1.51228571,41.9151429 L41.8542,157.981943 L62.2790857,157.981943 L84.2997714,88.9269143 L106.668057,157.986457 L127.291571,157.986457 L167.421314,41.9151429 L143.143486,41.9151429" id="Fill-9" sketch:type="MSShapeGroup"></path>
                <path d="M286.851257,88.1752857 L181.819629,88.1752857 C185.121829,72.7183714 199.572057,59.8639429 218.886429,59.8549143 L218.915771,59.8549143 L218.994771,59.8504 C219.326571,59.8458857 219.6358,59.8413714 219.936,59.8413714 C232.914571,59.8097714 244.450829,67.1816 250.865629,77.0656286 L252.093514,78.9593714 L276.425514,78.9593714 L273.646971,73.0253429 C270.6066,66.5338 266.399286,60.4982 261.0318,55.3 C249.978571,44.6801429 234.8828,38.9041143 218.6878,38.9086286 C201.459029,38.8996 186.173657,45.7342286 175.280686,56.8213143 C164.3832,67.9038857 157.837486,83.2502 157.837486,100.147171 C157.851029,114.559029 163.017629,129.650286 173.276343,141.301657 C183.498943,152.944 198.980686,160.988457 218.775829,160.988457 L218.886429,160.988457 C230.652914,160.988457 242.065029,157.774286 251.782029,151.510714 C261.693143,145.271971 269.873029,135.746829 275.177314,123.425086 L277.680486,117.612943 L253.355257,117.612943 L252.204114,119.915229 C245.811886,132.555229 234.126657,139.7668 218.886429,139.841286 L218.4666,139.841286 C210.367971,139.859343 200.987286,136.866371 193.782486,130.9188 C187.444429,125.6732 182.675086,118.328457 181.343371,108.320286 L287.0544,108.320286 L287.406514,104.539571 C287.582571,102.677429 287.657057,100.826571 287.657057,98.9915143 C287.657057,96.5899143 287.517114,94.2176571 287.262057,91.8860286 L286.851257,88.1752857" id="Fill-10" sketch:type="MSShapeGroup"></path>
                <path d="M686.189486,88.1707714 L659.672571,88.1707714 L659.672571,88.1752857 L651.066086,88.1752857 L581.153343,88.1707714 C584.453286,72.7183714 598.910286,59.8639429 618.215629,59.8549143 L618.328486,59.8549143 C618.660286,59.8458857 618.969514,59.8413714 619.262943,59.8413714 C632.246029,59.8142857 643.784543,67.1816 650.194829,77.0656286 L651.427229,78.9593714 L675.759229,78.9593714 L672.980686,73.0321143 C669.940314,66.5292857 665.733,60.4982 660.363257,55.2954857 C649.3168,44.6801429 634.216514,38.9041143 618.017,38.9086286 C600.792743,38.8996 585.507371,45.7342286 574.618914,56.8258286 C563.716914,67.9038857 557.1712,83.2502 557.175714,100.147171 C557.187,114.559029 562.346829,129.650286 572.6078,141.301657 C582.832657,152.944 598.309886,160.988457 618.109543,160.988457 L618.215629,160.988457 C629.984371,160.988457 641.398743,157.774286 651.111229,151.510714 C661.0246,145.271971 669.211257,135.746829 674.515543,123.4296 L677.0142,117.612943 L652.688971,117.612943 L651.537829,119.915229 C645.1456,132.555229 633.462629,139.7668 618.215629,139.836771 L617.800314,139.836771 C609.701686,139.854829 600.316486,136.866371 593.111686,130.923314 C586.778143,125.6732 582.004286,118.332971 580.677086,108.320286 L686.392629,108.320286 L686.740229,104.539571 C686.916286,102.677429 686.990771,100.826571 686.990771,98.9960286 C686.990771,96.5899143 686.850829,94.2176571 686.593514,91.8860286 L686.189486,88.1707714" id="Fill-11" sketch:type="MSShapeGroup"></path>
                <path d="M400.875343,56.9409429 C389.8808,46.4836 375.157457,40.8926571 360.124886,40.8926571 L360.088771,40.8926571 C352.577,40.9987429 344.570914,42.7096571 337.068171,46.2985143 C331.5314,48.9484 326.281286,52.6320571 321.739914,57.4465429 L321.739914,0.620714286 L295.464514,0.620714286 L295.464514,160.399343 L320.925086,160.399343 L320.925086,146.824886 C329.423229,157.0836 342.943514,163.688 359.3078,163.669943 C375.870714,163.674457 390.8604,157.546314 401.665343,146.705257 C412.483829,135.873229 419.070171,120.350857 419.061143,101.871629 C419.074686,82.7423429 411.878914,67.3915143 400.875343,56.9409429 L400.875343,56.9409429 Z M392.785743,102.255343 C392.6932,111.292943 389.4542,120.493057 383.326057,127.343486 C377.188886,134.193914 368.257371,138.805257 356.240343,138.827829 C345.564057,138.814286 336.833429,134.634057 330.657886,127.977743 C324.495886,121.3124 320.925086,112.1168 320.925086,102.079286 C320.925086,92.1636571 324.5794,83.0831714 330.861029,76.4832857 C337.160714,69.8969429 346.060629,65.7483143 356.8588,65.7347714 C367.133314,65.7438 376.069343,69.7502286 382.488657,76.2801429 C388.903457,82.8168286 392.785743,91.8815143 392.785743,102.079286 L392.785743,102.255343 L392.785743,102.255343 Z" id="Fill-12" sketch:type="MSShapeGroup"></path>
                <path d="M426.715114,101.871629 C426.706086,120.350857 433.292429,135.873229 444.1064,146.705257 C454.915857,157.546314 469.905543,163.674457 486.4662,163.669943 C502.825971,163.688 516.348514,157.0836 524.851171,146.824886 L524.851171,160.399343 L550.307229,160.399343 L550.307229,0.620714286 L524.031829,0.620714286 L524.031829,57.4465429 C519.494971,52.6320571 514.240343,48.9484 508.708086,46.2985143 C501.205343,42.7096571 493.194743,40.9987429 485.687486,40.8926571 L485.646857,40.8926571 C470.614286,40.8926571 455.890943,46.4836 444.894143,56.9409429 C433.895086,67.3915143 426.701571,82.7423429 426.715114,101.871629 L426.715114,101.871629 Z M452.983743,102.079286 C452.988257,91.8815143 456.868286,82.8168286 463.283086,76.2801429 C469.706914,69.7502286 478.638429,65.7438 488.917457,65.7347714 C499.715629,65.7483143 508.615543,69.8969429 514.910714,76.4832857 C521.196857,83.0831714 524.851171,92.1636571 524.851171,102.079286 C524.851171,112.1168 521.280371,121.3124 515.113857,127.977743 C508.938314,134.634057 500.2122,138.814286 489.5314,138.827829 C477.514371,138.805257 468.587371,134.193914 462.445686,127.343486 C456.322057,120.493057 453.076286,111.292943 452.983743,102.255343 L452.983743,102.079286 L452.983743,102.079286 Z" id="Fill-13" sketch:type="MSShapeGroup"></path>
            </g>
        </g>
    </g>
</svg>